<svg width="49" height="21" viewBox="0 0 49 21" fill="none" xmlns="http://www.w3.org/2000/svg">
<rect width="49" height="21" rx="10" fill="#FFDFF0"/>
<path d="M11.478 13.417L7.078 11.558C6.74067 11.4187 6.572 11.1767 6.572 10.832C6.572 10.6633 6.61233 10.524 6.693 10.414C6.781 10.2967 6.90933 10.2013 7.078 10.128L11.478 8.258C11.6027 8.20667 11.7127 8.19567 11.808 8.225C11.9107 8.25433 11.9913 8.30933 12.05 8.39C12.1087 8.47067 12.1417 8.56233 12.149 8.665C12.1563 8.76767 12.1343 8.86667 12.083 8.962C12.039 9.05 11.9547 9.11967 11.83 9.171L7.034 11.184V10.502L11.83 12.515C11.9547 12.5663 12.039 12.6397 12.083 12.735C12.1343 12.823 12.1563 12.9183 12.149 13.021C12.1417 13.1163 12.1087 13.2043 12.05 13.285C11.9913 13.3657 11.9107 13.4207 11.808 13.45C11.7127 13.4793 11.6027 13.4683 11.478 13.417ZM17.177 14C16.935 14 16.748 13.9377 16.616 13.813C16.4914 13.681 16.429 13.494 16.429 13.252V6.993C16.429 6.751 16.4914 6.56767 16.616 6.443C16.748 6.311 16.935 6.245 17.177 6.245H19.817C20.3597 6.245 20.8217 6.32567 21.203 6.487C21.5844 6.64833 21.874 6.87933 22.072 7.18C22.2774 7.48067 22.38 7.84 22.38 8.258C22.38 8.72733 22.2444 9.12333 21.973 9.446C21.7017 9.76867 21.3314 9.985 20.862 10.095V9.93C21.4047 10.0107 21.8264 10.216 22.127 10.546C22.4277 10.876 22.578 11.305 22.578 11.833C22.578 12.5223 22.3434 13.0577 21.874 13.439C21.412 13.813 20.7667 14 19.938 14H17.177ZM17.782 12.933H19.762C20.2607 12.933 20.6274 12.8377 20.862 12.647C21.0967 12.449 21.214 12.1557 21.214 11.767C21.214 11.371 21.0967 11.0777 20.862 10.887C20.6274 10.6963 20.2607 10.601 19.762 10.601H17.782V12.933ZM17.782 9.534H19.575C20.059 9.534 20.4184 9.44233 20.653 9.259C20.895 9.06833 21.016 8.78967 21.016 8.423C21.016 8.05633 20.895 7.78133 20.653 7.598C20.4184 7.40733 20.059 7.312 19.575 7.312H17.782V9.534ZM25.6413 14.11C25.2526 14.11 24.9043 14.0367 24.5963 13.89C24.2956 13.736 24.0573 13.5307 23.8813 13.274C23.7126 13.0173 23.6283 12.7277 23.6283 12.405C23.6283 12.009 23.7309 11.6973 23.9363 11.47C24.1416 11.2353 24.4753 11.0667 24.9373 10.964C25.3993 10.8613 26.0189 10.81 26.7963 10.81H27.3463V11.602H26.8073C26.3526 11.602 25.9896 11.624 25.7183 11.668C25.4469 11.712 25.2526 11.789 25.1353 11.899C25.0253 12.0017 24.9703 12.1483 24.9703 12.339C24.9703 12.581 25.0546 12.779 25.2233 12.933C25.3919 13.087 25.6266 13.164 25.9273 13.164C26.1693 13.164 26.3819 13.109 26.5653 12.999C26.7559 12.8817 26.9063 12.724 27.0163 12.526C27.1263 12.328 27.1813 12.1007 27.1813 11.844V10.579C27.1813 10.2123 27.1006 9.94833 26.9393 9.787C26.7779 9.62567 26.5066 9.545 26.1253 9.545C25.9126 9.545 25.6816 9.57067 25.4323 9.622C25.1903 9.67333 24.9336 9.76133 24.6623 9.886C24.5229 9.952 24.3983 9.97033 24.2883 9.941C24.1856 9.91167 24.1049 9.853 24.0463 9.765C23.9876 9.66967 23.9583 9.567 23.9583 9.457C23.9583 9.347 23.9876 9.24067 24.0463 9.138C24.1049 9.028 24.2039 8.94733 24.3433 8.896C24.6806 8.75667 25.0033 8.65767 25.3113 8.599C25.6266 8.54033 25.9126 8.511 26.1693 8.511C26.6973 8.511 27.1299 8.59167 27.4673 8.753C27.8119 8.91433 28.0686 9.16 28.2373 9.49C28.4059 9.81267 28.4903 10.2307 28.4903 10.744V13.384C28.4903 13.6113 28.4353 13.7873 28.3253 13.912C28.2153 14.0293 28.0576 14.088 27.8523 14.088C27.6469 14.088 27.4856 14.0293 27.3683 13.912C27.2583 13.7873 27.2033 13.6113 27.2033 13.384V12.856H27.2913C27.2399 13.1127 27.1373 13.3363 26.9833 13.527C26.8366 13.7103 26.6496 13.8533 26.4223 13.956C26.1949 14.0587 25.9346 14.11 25.6413 14.11ZM32.3719 14.11C31.8072 14.11 31.3159 13.9963 30.8979 13.769C30.4799 13.5343 30.1572 13.2043 29.9299 12.779C29.7026 12.3537 29.5889 11.855 29.5889 11.283C29.5889 10.8503 29.6512 10.4653 29.7759 10.128C29.9079 9.78333 30.0949 9.49367 30.3369 9.259C30.5789 9.017 30.8722 8.83367 31.2169 8.709C31.5616 8.577 31.9466 8.511 32.3719 8.511C32.6139 8.511 32.8742 8.544 33.1529 8.61C33.4389 8.676 33.7066 8.786 33.9559 8.94C34.0732 9.01333 34.1502 9.10133 34.1869 9.204C34.2236 9.30667 34.2309 9.413 34.2089 9.523C34.1869 9.62567 34.1392 9.71733 34.0659 9.798C33.9999 9.87133 33.9156 9.919 33.8129 9.941C33.7102 9.95567 33.5966 9.93 33.4719 9.864C33.3106 9.76867 33.1456 9.699 32.9769 9.655C32.8082 9.60367 32.6469 9.578 32.4929 9.578C32.2509 9.578 32.0382 9.61833 31.8549 9.699C31.6716 9.77233 31.5139 9.88233 31.3819 10.029C31.2572 10.1683 31.1619 10.3443 31.0959 10.557C31.0299 10.7697 30.9969 11.0153 30.9969 11.294C30.9969 11.8367 31.1252 12.2657 31.3819 12.581C31.6459 12.889 32.0162 13.043 32.4929 13.043C32.6469 13.043 32.8046 13.021 32.9659 12.977C33.1346 12.933 33.3032 12.8633 33.4719 12.768C33.5966 12.702 33.7066 12.68 33.8019 12.702C33.9046 12.724 33.9889 12.7753 34.0549 12.856C34.1209 12.9293 34.1612 13.021 34.1759 13.131C34.1906 13.2337 34.1759 13.3363 34.1319 13.439C34.0952 13.5417 34.0219 13.626 33.9119 13.692C33.6699 13.8387 33.4132 13.945 33.1419 14.011C32.8706 14.077 32.6139 14.11 32.3719 14.11ZM35.7564 14.088C35.5364 14.088 35.3677 14.0293 35.2504 13.912C35.133 13.7873 35.0744 13.6113 35.0744 13.384V6.85C35.0744 6.62267 35.133 6.45033 35.2504 6.333C35.3677 6.21567 35.5364 6.157 35.7564 6.157C35.9764 6.157 36.145 6.21567 36.2624 6.333C36.387 6.45033 36.4494 6.62267 36.4494 6.85V10.909H36.4714L38.2864 8.995C38.433 8.84833 38.5614 8.73467 38.6714 8.654C38.7814 8.57333 38.9317 8.533 39.1224 8.533C39.313 8.533 39.456 8.58433 39.5514 8.687C39.654 8.78233 39.7054 8.89967 39.7054 9.039C39.7054 9.17833 39.6394 9.31767 39.5074 9.457L37.5934 11.481V10.909L39.6944 13.175C39.8264 13.3143 39.885 13.4573 39.8704 13.604C39.863 13.7433 39.8044 13.8607 39.6944 13.956C39.5844 14.044 39.445 14.088 39.2764 14.088C39.071 14.088 38.906 14.0477 38.7814 13.967C38.664 13.8863 38.532 13.7653 38.3854 13.604L36.4714 11.602H36.4494V13.384C36.4494 13.8533 36.2184 14.088 35.7564 14.088Z" fill="white"/>
</svg>
