<svg width="23" height="23" viewBox="0 0 23 23" fill="none" xmlns="http://www.w3.org/2000/svg">
<rect x="3" y="11" width="17" height="9" rx="4.5" fill="#3F88EF"/>
<path d="M8.662 18.11C8.21467 18.11 7.84433 18.0293 7.551 17.868C7.25767 17.6993 7.03767 17.45 6.891 17.12C6.75167 16.79 6.682 16.3793 6.682 15.888V13.226C6.682 12.9913 6.74067 12.819 6.858 12.709C6.97533 12.5917 7.144 12.533 7.364 12.533C7.584 12.533 7.75267 12.5917 7.87 12.709C7.99467 12.819 8.057 12.9913 8.057 13.226V15.91C8.057 16.2913 8.134 16.5737 8.288 16.757C8.442 16.9403 8.68767 17.032 9.025 17.032C9.39167 17.032 9.69233 16.9073 9.927 16.658C10.1617 16.4013 10.279 16.064 10.279 15.646V13.226C10.279 12.9913 10.3377 12.819 10.455 12.709C10.5723 12.5917 10.741 12.533 10.961 12.533C11.181 12.533 11.3497 12.5917 11.467 12.709C11.5917 12.819 11.654 12.9913 11.654 13.226V17.384C11.654 17.8533 11.4303 18.088 10.983 18.088C10.7703 18.088 10.6053 18.0293 10.488 17.912C10.3707 17.7873 10.312 17.6113 10.312 17.384V16.548L10.466 16.878C10.312 17.274 10.0773 17.5783 9.762 17.791C9.454 18.0037 9.08733 18.11 8.662 18.11ZM13.4151 18C13.2758 18 13.1585 17.967 13.0631 17.901C12.9751 17.8277 12.9165 17.736 12.8871 17.626C12.8578 17.516 12.8578 17.3987 12.8871 17.274C12.9238 17.142 12.9935 17.0173 13.0961 16.9L15.9451 13.325V13.655H13.3491C13.1805 13.655 13.0485 13.611 12.9531 13.523C12.8651 13.4277 12.8211 13.2993 12.8211 13.138C12.8211 12.9693 12.8651 12.841 12.9531 12.753C13.0485 12.665 13.1805 12.621 13.3491 12.621H16.6051C16.7665 12.621 16.8985 12.6577 17.0011 12.731C17.1038 12.797 17.1698 12.885 17.1991 12.995C17.2358 13.105 17.2395 13.2223 17.2101 13.347C17.1808 13.4717 17.1148 13.589 17.0121 13.699L14.1081 17.329V16.966H16.8581C17.2101 16.966 17.3861 17.1383 17.3861 17.483C17.3861 17.6443 17.3385 17.7727 17.2431 17.868C17.1551 17.956 17.0268 18 16.8581 18H13.4151Z" fill="white"/>
<path d="M6.06 10.1C5.50667 10.1 5.03 9.99667 4.63 9.79C4.23 9.58333 3.92 9.29 3.7 8.91C3.48667 8.53 3.38 8.08 3.38 7.56C3.38 7.05333 3.48333 6.61 3.69 6.23C3.90333 5.85 4.19333 5.55333 4.56 5.34C4.93333 5.12 5.35667 5.01 5.83 5.01C6.17667 5.01 6.48667 5.06667 6.76 5.18C7.04 5.29333 7.27667 5.45667 7.47 5.67C7.67 5.88333 7.82 6.14333 7.92 6.45C8.02667 6.75 8.08 7.09 8.08 7.47C8.08 7.59 8.03667 7.68333 7.95 7.75C7.87 7.81 7.75333 7.84 7.6 7.84H4.39V7.12H7.2L7.04 7.27C7.04 6.96333 6.99333 6.70667 6.9 6.5C6.81333 6.29333 6.68333 6.13667 6.51 6.03C6.34333 5.91667 6.13333 5.86 5.88 5.86C5.6 5.86 5.36 5.92667 5.16 6.06C4.96667 6.18667 4.81667 6.37 4.71 6.61C4.61 6.84333 4.56 7.12333 4.56 7.45V7.52C4.56 8.06667 4.68667 8.47667 4.94 8.75C5.2 9.01667 5.58 9.15 6.08 9.15C6.25333 9.15 6.44667 9.13 6.66 9.09C6.88 9.04333 7.08667 8.96667 7.28 8.86C7.42 8.78 7.54333 8.74667 7.65 8.76C7.75667 8.76667 7.84 8.80333 7.9 8.87C7.96667 8.93667 8.00667 9.02 8.02 9.12C8.03333 9.21333 8.01333 9.31 7.96 9.41C7.91333 9.51 7.83 9.59667 7.71 9.67C7.47667 9.81667 7.20667 9.92667 6.9 10C6.6 10.0667 6.32 10.1 6.06 10.1ZM10.9499 10.1C10.5233 10.1 10.1466 9.99667 9.81992 9.79C9.49992 9.58333 9.24992 9.29 9.06992 8.91C8.88992 8.52333 8.79992 8.07 8.79992 7.55C8.79992 7.02333 8.88992 6.57333 9.06992 6.2C9.24992 5.82 9.49992 5.52667 9.81992 5.32C10.1466 5.11333 10.5233 5.01 10.9499 5.01C11.3566 5.01 11.7099 5.11 12.0099 5.31C12.3166 5.51 12.5233 5.77333 12.6299 6.1H12.5199V3.5C12.5199 3.29333 12.5733 3.13667 12.6799 3.03C12.7866 2.92333 12.9399 2.87 13.1399 2.87C13.3399 2.87 13.4933 2.92333 13.5999 3.03C13.7133 3.13667 13.7699 3.29333 13.7699 3.5V9.44C13.7699 9.64667 13.7166 9.80667 13.6099 9.92C13.5033 10.0267 13.3499 10.08 13.1499 10.08C12.9499 10.08 12.7966 10.0267 12.6899 9.92C12.5833 9.80667 12.5299 9.64667 12.5299 9.44V8.66L12.6399 8.96C12.5399 9.30667 12.3366 9.58333 12.0299 9.79C11.7233 9.99667 11.3633 10.1 10.9499 10.1ZM11.2999 9.15C11.5466 9.15 11.7633 9.09 11.9499 8.97C12.1366 8.85 12.2799 8.67333 12.3799 8.44C12.4866 8.2 12.5399 7.90333 12.5399 7.55C12.5399 7.01667 12.4266 6.62 12.1999 6.36C11.9733 6.09333 11.6733 5.96 11.2999 5.96C11.0533 5.96 10.8366 6.02 10.6499 6.14C10.4633 6.25333 10.3166 6.43 10.2099 6.67C10.1099 6.90333 10.0599 7.19667 10.0599 7.55C10.0599 8.07667 10.1733 8.47667 10.3999 8.75C10.6266 9.01667 10.9266 9.15 11.2999 9.15ZM16.836 10.1C16.4293 10.1 16.0927 10.0267 15.826 9.88C15.5593 9.72667 15.3593 9.5 15.226 9.2C15.0993 8.9 15.036 8.52667 15.036 8.08V5.66C15.036 5.44667 15.0893 5.29 15.196 5.19C15.3027 5.08333 15.456 5.03 15.656 5.03C15.856 5.03 16.0093 5.08333 16.116 5.19C16.2293 5.29 16.286 5.44667 16.286 5.66V8.1C16.286 8.44667 16.356 8.70333 16.496 8.87C16.636 9.03667 16.8593 9.12 17.166 9.12C17.4993 9.12 17.7727 9.00667 17.986 8.78C18.1993 8.54667 18.306 8.24 18.306 7.86V5.66C18.306 5.44667 18.3593 5.29 18.466 5.19C18.5727 5.08333 18.726 5.03 18.926 5.03C19.126 5.03 19.2793 5.08333 19.386 5.19C19.4993 5.29 19.556 5.44667 19.556 5.66V9.44C19.556 9.86667 19.3527 10.08 18.946 10.08C18.7527 10.08 18.6027 10.0267 18.496 9.92C18.3893 9.80667 18.336 9.64667 18.336 9.44V8.68L18.476 8.98C18.336 9.34 18.1227 9.61667 17.836 9.81C17.556 10.0033 17.2227 10.1 16.836 10.1Z" fill="black"/>
<circle cx="11.5" cy="11.5" r="11.4" fill="#0FB6FE" fill-opacity="0.16" stroke="#808080" stroke-width="0.2"/>
</svg>
