<svg width="50" height="23" viewBox="0 0 50 23" fill="none" xmlns="http://www.w3.org/2000/svg">
<rect width="50" height="23" rx="10" fill="#E7F0FF"/>
<path d="M13.278 14C13.092 14 12.948 13.949 12.846 13.847C12.744 13.739 12.693 13.592 12.693 13.406V8.213C12.693 8.021 12.741 7.877 12.837 7.781C12.939 7.679 13.083 7.628 13.269 7.628C13.455 7.628 13.596 7.679 13.692 7.781C13.794 7.877 13.845 8.021 13.845 8.213V13.019H16.455C16.617 13.019 16.74 13.061 16.824 13.145C16.914 13.229 16.959 13.349 16.959 13.505C16.959 13.661 16.914 13.784 16.824 13.874C16.74 13.958 16.617 14 16.455 14H13.278ZM19.6018 14.09C19.1458 14.09 18.7498 13.997 18.4138 13.811C18.0778 13.625 17.8168 13.361 17.6308 13.019C17.4448 12.671 17.3518 12.263 17.3518 11.795C17.3518 11.441 17.4028 11.126 17.5048 10.85C17.6128 10.568 17.7658 10.328 17.9638 10.13C18.1618 9.926 18.3988 9.773 18.6748 9.671C18.9508 9.563 19.2598 9.509 19.6018 9.509C20.0578 9.509 20.4538 9.602 20.7898 9.788C21.1258 9.974 21.3868 10.238 21.5728 10.58C21.7588 10.922 21.8518 11.327 21.8518 11.795C21.8518 12.149 21.7978 12.467 21.6898 12.749C21.5878 13.031 21.4378 13.274 21.2398 13.478C21.0418 13.676 20.8048 13.829 20.5288 13.937C20.2528 14.039 19.9438 14.09 19.6018 14.09ZM19.6018 13.235C19.8238 13.235 20.0188 13.181 20.1868 13.073C20.3548 12.965 20.4838 12.806 20.5738 12.596C20.6698 12.38 20.7178 12.113 20.7178 11.795C20.7178 11.315 20.6158 10.958 20.4118 10.724C20.2078 10.484 19.9378 10.364 19.6018 10.364C19.3798 10.364 19.1848 10.418 19.0168 10.526C18.8488 10.628 18.7168 10.787 18.6208 11.003C18.5308 11.213 18.4858 11.477 18.4858 11.795C18.4858 12.269 18.5878 12.629 18.7918 12.875C18.9958 13.115 19.2658 13.235 19.6018 13.235ZM24.8323 15.71C24.5083 15.71 24.1933 15.68 23.8873 15.62C23.5873 15.56 23.3143 15.467 23.0683 15.341C22.9543 15.281 22.8763 15.209 22.8343 15.125C22.7983 15.041 22.7863 14.954 22.7983 14.864C22.8163 14.78 22.8523 14.705 22.9063 14.639C22.9663 14.573 23.0383 14.528 23.1223 14.504C23.2063 14.48 23.2933 14.492 23.3833 14.54C23.6473 14.672 23.8963 14.756 24.1303 14.792C24.3703 14.834 24.5743 14.855 24.7423 14.855C25.1443 14.855 25.4443 14.756 25.6423 14.558C25.8463 14.366 25.9483 14.078 25.9483 13.694V12.884H26.0293C25.9393 13.19 25.7503 13.436 25.4623 13.622C25.1803 13.802 24.8593 13.892 24.4993 13.892C24.1033 13.892 23.7583 13.802 23.4643 13.622C23.1703 13.436 22.9423 13.178 22.7803 12.848C22.6183 12.518 22.5373 12.134 22.5373 11.696C22.5373 11.366 22.5823 11.069 22.6723 10.805C22.7683 10.535 22.9003 10.304 23.0683 10.112C23.2423 9.92 23.4493 9.773 23.6893 9.671C23.9353 9.563 24.2053 9.509 24.4993 9.509C24.8713 9.509 25.1953 9.602 25.4713 9.788C25.7533 9.968 25.9363 10.208 26.0203 10.508L25.9303 10.733V10.094C25.9303 9.908 25.9783 9.767 26.0743 9.671C26.1763 9.575 26.3143 9.527 26.4883 9.527C26.6683 9.527 26.8063 9.575 26.9023 9.671C26.9983 9.767 27.0463 9.908 27.0463 10.094V13.559C27.0463 14.273 26.8573 14.81 26.4793 15.17C26.1013 15.53 25.5523 15.71 24.8323 15.71ZM24.8053 13.037C25.0393 13.037 25.2403 12.983 25.4083 12.875C25.5763 12.767 25.7053 12.614 25.7953 12.416C25.8913 12.212 25.9393 11.972 25.9393 11.696C25.9393 11.282 25.8373 10.958 25.6333 10.724C25.4293 10.484 25.1533 10.364 24.8053 10.364C24.5713 10.364 24.3703 10.418 24.2023 10.526C24.0343 10.634 23.9023 10.787 23.8063 10.985C23.7163 11.183 23.6713 11.42 23.6713 11.696C23.6713 12.11 23.7733 12.437 23.9773 12.677C24.1813 12.917 24.4573 13.037 24.8053 13.037ZM28.77 14.063C28.59 14.063 28.452 14.009 28.356 13.901C28.26 13.793 28.212 13.643 28.212 13.451V10.148C28.212 9.95 28.26 9.8 28.356 9.698C28.452 9.59 28.59 9.536 28.77 9.536C28.95 9.536 29.088 9.59 29.184 9.698C29.286 9.8 29.337 9.95 29.337 10.148V13.451C29.337 13.643 29.289 13.793 29.193 13.901C29.097 14.009 28.956 14.063 28.77 14.063ZM28.77 8.699C28.56 8.699 28.395 8.648 28.275 8.546C28.161 8.438 28.104 8.291 28.104 8.105C28.104 7.913 28.161 7.766 28.275 7.664C28.395 7.562 28.56 7.511 28.77 7.511C28.986 7.511 29.151 7.562 29.265 7.664C29.379 7.766 29.436 7.913 29.436 8.105C29.436 8.291 29.379 8.438 29.265 8.546C29.151 8.648 28.986 8.699 28.77 8.699ZM31.0639 14.072C30.8839 14.072 30.7459 14.024 30.6499 13.928C30.5539 13.826 30.5059 13.682 30.5059 13.496V10.094C30.5059 9.908 30.5539 9.767 30.6499 9.671C30.7459 9.575 30.8809 9.527 31.0549 9.527C31.2289 9.527 31.3639 9.575 31.4599 9.671C31.5559 9.767 31.6039 9.908 31.6039 10.094V10.706L31.5049 10.481C31.6369 10.163 31.8409 9.923 32.1169 9.761C32.3989 9.593 32.7169 9.509 33.0709 9.509C33.4249 9.509 33.7159 9.575 33.9439 9.707C34.1719 9.839 34.3429 10.04 34.4569 10.31C34.5709 10.574 34.6279 10.91 34.6279 11.318V13.496C34.6279 13.682 34.5799 13.826 34.4839 13.928C34.3879 14.024 34.2499 14.072 34.0699 14.072C33.8899 14.072 33.7489 14.024 33.6469 13.928C33.5509 13.826 33.5029 13.682 33.5029 13.496V11.372C33.5029 11.03 33.4369 10.781 33.3049 10.625C33.1789 10.469 32.9809 10.391 32.7109 10.391C32.3809 10.391 32.1169 10.496 31.9189 10.706C31.7269 10.91 31.6309 11.183 31.6309 11.525V13.496C31.6309 13.88 31.4419 14.072 31.0639 14.072Z" fill="#006AFF"/>
</svg>
