<svg width="50" height="23" viewBox="0 0 50 23" fill="none" xmlns="http://www.w3.org/2000/svg">
<rect width="50" height="23" rx="10" fill="#E7F0FF"/>
<path d="M8.988 16C8.69867 16 8.47467 15.9207 8.316 15.762C8.15733 15.594 8.078 15.3653 8.078 15.076V6.998C8.078 6.69933 8.15267 6.47533 8.302 6.326C8.46067 6.16733 8.68467 6.088 8.974 6.088C9.26333 6.088 9.48267 6.16733 9.632 6.326C9.79067 6.47533 9.87 6.69933 9.87 6.998V14.474H13.93C14.182 14.474 14.3733 14.5393 14.504 14.67C14.644 14.8007 14.714 14.9873 14.714 15.23C14.714 15.4727 14.644 15.664 14.504 15.804C14.3733 15.9347 14.182 16 13.93 16H8.988ZM18.825 16.14C18.1156 16.14 17.4996 15.9953 16.977 15.706C16.4543 15.4167 16.0483 15.006 15.759 14.474C15.4696 13.9327 15.325 13.298 15.325 12.57C15.325 12.0193 15.4043 11.5293 15.563 11.1C15.731 10.6613 15.969 10.288 16.277 9.98C16.585 9.66267 16.9536 9.42467 17.383 9.266C17.8123 9.098 18.293 9.014 18.825 9.014C19.5343 9.014 20.1503 9.15867 20.673 9.448C21.1956 9.73733 21.6016 10.148 21.891 10.68C22.1803 11.212 22.325 11.842 22.325 12.57C22.325 13.1207 22.241 13.6153 22.073 14.054C21.9143 14.4927 21.681 14.8707 21.373 15.188C21.065 15.496 20.6963 15.734 20.267 15.902C19.8376 16.0607 19.357 16.14 18.825 16.14ZM18.825 14.81C19.1703 14.81 19.4736 14.726 19.735 14.558C19.9963 14.39 20.197 14.1427 20.337 13.816C20.4863 13.48 20.561 13.0647 20.561 12.57C20.561 11.8233 20.4023 11.268 20.085 10.904C19.7676 10.5307 19.3476 10.344 18.825 10.344C18.4796 10.344 18.1763 10.428 17.915 10.596C17.6536 10.7547 17.4483 11.002 17.299 11.338C17.159 11.6647 17.089 12.0753 17.089 12.57C17.089 13.3073 17.2476 13.8673 17.565 14.25C17.8823 14.6233 18.3023 14.81 18.825 14.81ZM26.9614 18.66C26.4574 18.66 25.9674 18.6133 25.4914 18.52C25.0247 18.4267 24.6 18.282 24.2174 18.086C24.04 17.9927 23.9187 17.8807 23.8534 17.75C23.7974 17.6193 23.7787 17.484 23.7974 17.344C23.8254 17.2133 23.8814 17.0967 23.9654 16.994C24.0587 16.8913 24.1707 16.8213 24.3014 16.784C24.432 16.7467 24.5674 16.7653 24.7074 16.84C25.118 17.0453 25.5054 17.176 25.8694 17.232C26.2427 17.2973 26.56 17.33 26.8214 17.33C27.4467 17.33 27.9134 17.176 28.2214 16.868C28.5387 16.5693 28.6974 16.1213 28.6974 15.524V14.264H28.8234C28.6834 14.74 28.3894 15.1227 27.9414 15.412C27.5027 15.692 27.0034 15.832 26.4434 15.832C25.8274 15.832 25.2907 15.692 24.8334 15.412C24.376 15.1227 24.0214 14.7213 23.7694 14.208C23.5174 13.6947 23.3914 13.0973 23.3914 12.416C23.3914 11.9027 23.4614 11.4407 23.6014 11.03C23.7507 10.61 23.956 10.2507 24.2174 9.952C24.488 9.65333 24.81 9.42467 25.1834 9.266C25.566 9.098 25.986 9.014 26.4434 9.014C27.022 9.014 27.526 9.15867 27.9554 9.448C28.394 9.728 28.6787 10.1013 28.8094 10.568L28.6694 10.918V9.924C28.6694 9.63467 28.744 9.41533 28.8934 9.266C29.052 9.11667 29.2667 9.042 29.5374 9.042C29.8174 9.042 30.032 9.11667 30.1814 9.266C30.3307 9.41533 30.4054 9.63467 30.4054 9.924V15.314C30.4054 16.4247 30.1114 17.26 29.5234 17.82C28.9354 18.38 28.0814 18.66 26.9614 18.66ZM26.9194 14.502C27.2834 14.502 27.596 14.418 27.8574 14.25C28.1187 14.082 28.3194 13.844 28.4594 13.536C28.6087 13.2187 28.6834 12.8453 28.6834 12.416C28.6834 11.772 28.5247 11.268 28.2074 10.904C27.89 10.5307 27.4607 10.344 26.9194 10.344C26.5554 10.344 26.2427 10.428 25.9814 10.596C25.72 10.764 25.5147 11.002 25.3654 11.31C25.2254 11.618 25.1554 11.9867 25.1554 12.416C25.1554 13.06 25.314 13.5687 25.6314 13.942C25.9487 14.3153 26.378 14.502 26.9194 14.502ZM33.0866 16.098C32.8066 16.098 32.5919 16.014 32.4426 15.846C32.2933 15.678 32.2186 15.4447 32.2186 15.146V10.008C32.2186 9.7 32.2933 9.46667 32.4426 9.308C32.5919 9.14 32.8066 9.056 33.0866 9.056C33.3666 9.056 33.5813 9.14 33.7306 9.308C33.8893 9.46667 33.9686 9.7 33.9686 10.008V15.146C33.9686 15.4447 33.8939 15.678 33.7446 15.846C33.5953 16.014 33.3759 16.098 33.0866 16.098ZM33.0866 7.754C32.7599 7.754 32.5033 7.67467 32.3166 7.516C32.1393 7.348 32.0506 7.11933 32.0506 6.83C32.0506 6.53133 32.1393 6.30267 32.3166 6.144C32.5033 5.98533 32.7599 5.906 33.0866 5.906C33.4226 5.906 33.6793 5.98533 33.8566 6.144C34.0339 6.30267 34.1226 6.53133 34.1226 6.83C34.1226 7.11933 34.0339 7.348 33.8566 7.516C33.6793 7.67467 33.4226 7.754 33.0866 7.754ZM36.655 16.112C36.375 16.112 36.1603 16.0373 36.011 15.888C35.8616 15.7293 35.787 15.5053 35.787 15.216V9.924C35.787 9.63467 35.8616 9.41533 36.011 9.266C36.1603 9.11667 36.3703 9.042 36.641 9.042C36.9116 9.042 37.1216 9.11667 37.271 9.266C37.4203 9.41533 37.495 9.63467 37.495 9.924V10.876L37.341 10.526C37.5463 10.0313 37.8636 9.658 38.293 9.406C38.7316 9.14467 39.2263 9.014 39.777 9.014C40.3276 9.014 40.7803 9.11667 41.135 9.322C41.4896 9.52733 41.7556 9.84 41.933 10.26C42.1103 10.6707 42.199 11.1933 42.199 11.828V15.216C42.199 15.5053 42.1243 15.7293 41.975 15.888C41.8256 16.0373 41.611 16.112 41.331 16.112C41.051 16.112 40.8316 16.0373 40.673 15.888C40.5236 15.7293 40.449 15.5053 40.449 15.216V11.912C40.449 11.38 40.3463 10.9927 40.141 10.75C39.945 10.5073 39.637 10.386 39.217 10.386C38.7036 10.386 38.293 10.5493 37.985 10.876C37.6863 11.1933 37.537 11.618 37.537 12.15V15.216C37.537 15.8133 37.243 16.112 36.655 16.112Z" fill="#006AFF"/>
</svg>
