<svg width="46" height="16" viewBox="0 0 46 16" fill="none" xmlns="http://www.w3.org/2000/svg">
<path d="M4.382 14.154C3.57 14.154 2.87 14.0093 2.282 13.72C1.70333 13.4213 1.25533 13.006 0.938 12.474C0.63 11.9327 0.476 11.298 0.476 10.57C0.476 9.86067 0.625333 9.24 0.924 8.708C1.22267 8.16667 1.638 7.74667 2.17 7.448C2.71133 7.14 3.32267 6.986 4.004 6.986C4.49867 6.986 4.94667 7.07 5.348 7.238C5.74933 7.39667 6.09467 7.63 6.384 7.938C6.67333 8.23667 6.89267 8.60533 7.042 9.044C7.19133 9.47333 7.266 9.954 7.266 10.486C7.266 10.6633 7.21 10.7987 7.098 10.892C6.986 10.976 6.82267 11.018 6.608 11.018H2.212V9.926H5.74L5.516 10.122C5.516 9.73933 5.46 9.422 5.348 9.17C5.236 8.90867 5.07267 8.71267 4.858 8.582C4.65267 8.45133 4.396 8.386 4.088 8.386C3.74267 8.386 3.44867 8.46533 3.206 8.624C2.96333 8.78267 2.77667 9.01133 2.646 9.31C2.51533 9.60867 2.45 9.968 2.45 10.388V10.5C2.45 11.2093 2.61333 11.732 2.94 12.068C3.276 12.404 3.77067 12.572 4.424 12.572C4.648 12.572 4.90467 12.544 5.194 12.488C5.48333 12.432 5.754 12.3433 6.006 12.222C6.22067 12.1193 6.412 12.0867 6.58 12.124C6.748 12.152 6.87867 12.2267 6.972 12.348C7.06533 12.4693 7.11667 12.6093 7.126 12.768C7.14467 12.9267 7.112 13.0853 7.028 13.244C6.944 13.3933 6.804 13.5193 6.608 13.622C6.29067 13.7993 5.93133 13.93 5.53 14.014C5.138 14.1073 4.75533 14.154 4.382 14.154ZM11.1696 14.154C10.5723 14.154 10.0449 14.0093 9.58759 13.72C9.13959 13.4307 8.78959 13.0153 8.53759 12.474C8.28559 11.9327 8.15959 11.2933 8.15959 10.556C8.15959 9.81867 8.28559 9.184 8.53759 8.652C8.78959 8.12 9.13959 7.70933 9.58759 7.42C10.0449 7.13067 10.5723 6.986 11.1696 6.986C11.7109 6.986 12.1869 7.11667 12.5976 7.378C13.0176 7.63933 13.3023 7.98 13.4516 8.4H13.2976V5.082C13.2976 4.72733 13.3863 4.46133 13.5636 4.284C13.7409 4.09733 14.0023 4.004 14.3476 4.004C14.6836 4.004 14.9449 4.09733 15.1316 4.284C15.3183 4.46133 15.4116 4.72733 15.4116 5.082V13.048C15.4116 13.3933 15.3183 13.6593 15.1316 13.846C14.9543 14.0327 14.6976 14.126 14.3616 14.126C14.0256 14.126 13.7643 14.0327 13.5776 13.846C13.4003 13.6593 13.3116 13.3933 13.3116 13.048V12.096L13.4656 12.642C13.3349 13.0993 13.0549 13.468 12.6256 13.748C12.2056 14.0187 11.7203 14.154 11.1696 14.154ZM11.7996 12.572C12.1076 12.572 12.3736 12.4973 12.5976 12.348C12.8216 12.1987 12.9989 11.9793 13.1296 11.69C13.2603 11.3913 13.3256 11.0133 13.3256 10.556C13.3256 9.87467 13.1856 9.37533 12.9056 9.058C12.6256 8.73133 12.2569 8.568 11.7996 8.568C11.5009 8.568 11.2349 8.638 11.0016 8.778C10.7776 8.918 10.6003 9.13733 10.4696 9.436C10.3483 9.72533 10.2876 10.0987 10.2876 10.556C10.2876 11.2373 10.4276 11.746 10.7076 12.082C10.9876 12.4087 11.3516 12.572 11.7996 12.572ZM19.5745 14.154C18.9958 14.154 18.5152 14.0467 18.1325 13.832C17.7498 13.6173 17.4652 13.2953 17.2785 12.866C17.1012 12.4273 17.0125 11.886 17.0125 11.242V8.078C17.0125 7.72333 17.1012 7.45733 17.2785 7.28C17.4652 7.10267 17.7265 7.014 18.0625 7.014C18.3985 7.014 18.6598 7.10267 18.8465 7.28C19.0332 7.45733 19.1265 7.72333 19.1265 8.078V11.298C19.1265 11.7087 19.2105 12.0167 19.3785 12.222C19.5465 12.418 19.8125 12.516 20.1765 12.516C20.5778 12.516 20.9045 12.376 21.1565 12.096C21.4178 11.8067 21.5485 11.4287 21.5485 10.962V8.078C21.5485 7.72333 21.6372 7.45733 21.8145 7.28C22.0012 7.10267 22.2625 7.014 22.5985 7.014C22.9438 7.014 23.2052 7.10267 23.3825 7.28C23.5692 7.45733 23.6625 7.72333 23.6625 8.078V13.048C23.6625 13.7667 23.3218 14.126 22.6405 14.126C22.3045 14.126 22.0478 14.0327 21.8705 13.846C21.6932 13.6593 21.6045 13.3933 21.6045 13.048V12.11L21.8145 12.656C21.6092 13.132 21.3152 13.5007 20.9325 13.762C20.5498 14.0233 20.0972 14.154 19.5745 14.154Z" fill="black"/>
<path d="M25 10.5C25 7.46243 27.4624 5 30.5 5H40.5C43.5376 5 46 7.46243 46 10.5V10.5C46 13.5376 43.5376 16 40.5 16H30.5C27.4624 16 25 13.5376 25 10.5V10.5Z" fill="#3F88EF"/>
<path d="M31.388 14.14C30.8187 14.14 30.3473 14.0373 29.974 13.832C29.6007 13.6173 29.3207 13.3 29.134 12.88C28.9567 12.46 28.868 11.9373 28.868 11.312V7.924C28.868 7.62533 28.9427 7.406 29.092 7.266C29.2413 7.11667 29.456 7.042 29.736 7.042C30.016 7.042 30.2307 7.11667 30.38 7.266C30.5387 7.406 30.618 7.62533 30.618 7.924V11.34C30.618 11.8253 30.716 12.1847 30.912 12.418C31.108 12.6513 31.4207 12.768 31.85 12.768C32.3167 12.768 32.6993 12.6093 32.998 12.292C33.2967 11.9653 33.446 11.536 33.446 11.004V7.924C33.446 7.62533 33.5207 7.406 33.67 7.266C33.8193 7.11667 34.034 7.042 34.314 7.042C34.594 7.042 34.8087 7.11667 34.958 7.266C35.1167 7.406 35.196 7.62533 35.196 7.924V13.216C35.196 13.8133 34.9113 14.112 34.342 14.112C34.0713 14.112 33.8613 14.0373 33.712 13.888C33.5627 13.7293 33.488 13.5053 33.488 13.216V12.152L33.684 12.572C33.488 13.076 33.1893 13.4633 32.788 13.734C32.396 14.0047 31.9293 14.14 31.388 14.14ZM37.4374 14C37.2601 14 37.1108 13.958 36.9894 13.874C36.8774 13.7807 36.8028 13.664 36.7654 13.524C36.7281 13.384 36.7281 13.2347 36.7654 13.076C36.8121 12.908 36.9008 12.7493 37.0314 12.6L40.6574 8.05V8.47H37.3534C37.1388 8.47 36.9708 8.414 36.8494 8.302C36.7374 8.18067 36.6814 8.01733 36.6814 7.812C36.6814 7.59733 36.7374 7.434 36.8494 7.322C36.9708 7.21 37.1388 7.154 37.3534 7.154H41.4974C41.7028 7.154 41.8708 7.20067 42.0014 7.294C42.1321 7.378 42.2161 7.49 42.2534 7.63C42.3001 7.77 42.3048 7.91933 42.2674 8.078C42.2301 8.23667 42.1461 8.386 42.0154 8.526L38.3194 13.146V12.684H41.8194C42.2674 12.684 42.4914 12.9033 42.4914 13.342C42.4914 13.5473 42.4308 13.7107 42.3094 13.832C42.1974 13.944 42.0341 14 41.8194 14H37.4374Z" fill="white"/>
</svg>
