<svg width="57" height="25" viewBox="0 0 57 25" fill="none" xmlns="http://www.w3.org/2000/svg">
<path d="M9.284 17.14C8.50933 17.14 7.842 16.9953 7.282 16.706C6.722 16.4167 6.288 16.006 5.98 15.474C5.68133 14.942 5.532 14.312 5.532 13.584C5.532 12.8747 5.67667 12.254 5.966 11.722C6.26467 11.19 6.67067 10.7747 7.184 10.476C7.70667 10.168 8.29933 10.014 8.962 10.014C9.44733 10.014 9.88133 10.0933 10.264 10.252C10.656 10.4107 10.9873 10.6393 11.258 10.938C11.538 11.2367 11.748 11.6007 11.888 12.03C12.0373 12.45 12.112 12.926 12.112 13.458C12.112 13.626 12.0513 13.7567 11.93 13.85C11.818 13.934 11.6547 13.976 11.44 13.976H6.946V12.968H10.88L10.656 13.178C10.656 12.7487 10.5907 12.3893 10.46 12.1C10.3387 11.8107 10.1567 11.5913 9.914 11.442C9.68067 11.2833 9.38667 11.204 9.032 11.204C8.64 11.204 8.304 11.2973 8.024 11.484C7.75333 11.6613 7.54333 11.918 7.394 12.254C7.254 12.5807 7.184 12.9727 7.184 13.43V13.528C7.184 14.2933 7.36133 14.8673 7.716 15.25C8.08 15.6233 8.612 15.81 9.312 15.81C9.55467 15.81 9.82533 15.782 10.124 15.726C10.432 15.6607 10.7213 15.5533 10.992 15.404C11.188 15.292 11.3607 15.2453 11.51 15.264C11.6593 15.2733 11.776 15.3247 11.86 15.418C11.9533 15.5113 12.0093 15.628 12.028 15.768C12.0467 15.8987 12.0187 16.034 11.944 16.174C11.8787 16.314 11.762 16.4353 11.594 16.538C11.2673 16.7433 10.8893 16.8973 10.46 17C10.04 17.0933 9.648 17.14 9.284 17.14ZM16.1299 17.14C15.5326 17.14 15.0052 16.9953 14.5479 16.706C14.0999 16.4167 13.7499 16.006 13.4979 15.474C13.2459 14.9327 13.1199 14.298 13.1199 13.57C13.1199 12.8327 13.2459 12.2027 13.4979 11.68C13.7499 11.148 14.0999 10.7373 14.5479 10.448C15.0052 10.1587 15.5326 10.014 16.1299 10.014C16.6992 10.014 17.1939 10.154 17.6139 10.434C18.0432 10.714 18.3326 11.0827 18.4819 11.54H18.3279V7.9C18.3279 7.61067 18.4026 7.39133 18.5519 7.242C18.7012 7.09267 18.9159 7.018 19.1959 7.018C19.4759 7.018 19.6906 7.09267 19.8399 7.242C19.9986 7.39133 20.0779 7.61067 20.0779 7.9V16.216C20.0779 16.5053 20.0032 16.7293 19.8539 16.888C19.7046 17.0373 19.4899 17.112 19.2099 17.112C18.9299 17.112 18.7152 17.0373 18.5659 16.888C18.4166 16.7293 18.3419 16.5053 18.3419 16.216V15.124L18.4959 15.544C18.3559 16.0293 18.0712 16.4167 17.6419 16.706C17.2126 16.9953 16.7086 17.14 16.1299 17.14ZM16.6199 15.81C16.9652 15.81 17.2686 15.726 17.5299 15.558C17.7912 15.39 17.9919 15.1427 18.1319 14.816C18.2812 14.48 18.3559 14.0647 18.3559 13.57C18.3559 12.8233 18.1972 12.268 17.8799 11.904C17.5626 11.5307 17.1426 11.344 16.6199 11.344C16.2746 11.344 15.9712 11.428 15.7099 11.596C15.4486 11.7547 15.2432 12.002 15.0939 12.338C14.9539 12.6647 14.8839 13.0753 14.8839 13.57C14.8839 14.3073 15.0426 14.8673 15.3599 15.25C15.6772 15.6233 16.0972 15.81 16.6199 15.81ZM24.3704 17.14C23.8011 17.14 23.3298 17.0373 22.9564 16.832C22.5831 16.6173 22.3031 16.3 22.1164 15.88C21.9391 15.46 21.8504 14.9373 21.8504 14.312V10.924C21.8504 10.6253 21.9251 10.406 22.0744 10.266C22.2238 10.1167 22.4384 10.042 22.7184 10.042C22.9984 10.042 23.2131 10.1167 23.3624 10.266C23.5211 10.406 23.6004 10.6253 23.6004 10.924V14.34C23.6004 14.8253 23.6984 15.1847 23.8944 15.418C24.0904 15.6513 24.4031 15.768 24.8324 15.768C25.2991 15.768 25.6818 15.6093 25.9804 15.292C26.2791 14.9653 26.4284 14.536 26.4284 14.004V10.924C26.4284 10.6253 26.5031 10.406 26.6524 10.266C26.8018 10.1167 27.0164 10.042 27.2964 10.042C27.5764 10.042 27.7911 10.1167 27.9404 10.266C28.0991 10.406 28.1784 10.6253 28.1784 10.924V16.216C28.1784 16.8133 27.8938 17.112 27.3244 17.112C27.0538 17.112 26.8438 17.0373 26.6944 16.888C26.5451 16.7293 26.4704 16.5053 26.4704 16.216V15.152L26.6664 15.572C26.4704 16.076 26.1718 16.4633 25.7704 16.734C25.3784 17.0047 24.9118 17.14 24.3704 17.14Z" fill="black"/>
<path d="M30 13.5C30 10.4624 32.4624 8 35.5 8H45.5C48.5376 8 51 10.4624 51 13.5V13.5C51 16.5376 48.5376 19 45.5 19H35.5C32.4624 19 30 16.5376 30 13.5V13.5Z" fill="#3F88EF"/>
<path d="M36.388 17.14C35.8187 17.14 35.3473 17.0373 34.974 16.832C34.6007 16.6173 34.3207 16.3 34.134 15.88C33.9567 15.46 33.868 14.9373 33.868 14.312V10.924C33.868 10.6253 33.9427 10.406 34.092 10.266C34.2413 10.1167 34.456 10.042 34.736 10.042C35.016 10.042 35.2307 10.1167 35.38 10.266C35.5387 10.406 35.618 10.6253 35.618 10.924V14.34C35.618 14.8253 35.716 15.1847 35.912 15.418C36.108 15.6513 36.4207 15.768 36.85 15.768C37.3167 15.768 37.6993 15.6093 37.998 15.292C38.2967 14.9653 38.446 14.536 38.446 14.004V10.924C38.446 10.6253 38.5207 10.406 38.67 10.266C38.8193 10.1167 39.034 10.042 39.314 10.042C39.594 10.042 39.8087 10.1167 39.958 10.266C40.1167 10.406 40.196 10.6253 40.196 10.924V16.216C40.196 16.8133 39.9113 17.112 39.342 17.112C39.0713 17.112 38.8613 17.0373 38.712 16.888C38.5627 16.7293 38.488 16.5053 38.488 16.216V15.152L38.684 15.572C38.488 16.076 38.1893 16.4633 37.788 16.734C37.396 17.0047 36.9293 17.14 36.388 17.14ZM42.4374 17C42.2601 17 42.1108 16.958 41.9894 16.874C41.8774 16.7807 41.8028 16.664 41.7654 16.524C41.7281 16.384 41.7281 16.2347 41.7654 16.076C41.8121 15.908 41.9008 15.7493 42.0314 15.6L45.6574 11.05V11.47H42.3534C42.1388 11.47 41.9708 11.414 41.8494 11.302C41.7374 11.1807 41.6814 11.0173 41.6814 10.812C41.6814 10.5973 41.7374 10.434 41.8494 10.322C41.9708 10.21 42.1388 10.154 42.3534 10.154H46.4974C46.7028 10.154 46.8708 10.2007 47.0014 10.294C47.1321 10.378 47.2161 10.49 47.2534 10.63C47.3001 10.77 47.3048 10.9193 47.2674 11.078C47.2301 11.2367 47.1461 11.386 47.0154 11.526L43.3194 16.146V15.684H46.8194C47.2674 15.684 47.4914 15.9033 47.4914 16.342C47.4914 16.5473 47.4308 16.7107 47.3094 16.832C47.1974 16.944 47.0341 17 46.8194 17H42.4374Z" fill="white"/>
<rect x="0.4" y="0.4" width="56.2" height="24.2" rx="12.1" stroke="#CCC9C9" stroke-width="0.8"/>
</svg>
